<svg width="20" height="20" viewBox="0 0 20 20" fill="none" xmlns="http://www.w3.org/2000/svg">
<g clip-path="url(#clip0_1139_9996)">
<path d="M7.79584 17.5003C8.38345 18.019 9.15532 18.3337 10.0007 18.3337C10.8461 18.3337 11.6179 18.019 12.2055 17.5003M1.91227 4.85024C1.90032 3.64078 2.55238 2.51136 3.60578 1.91699M18.0858 4.85024C18.0978 3.64078 17.4457 2.51137 16.3923 1.91699M15.0007 6.66699C15.0007 5.34091 14.4739 4.06914 13.5362 3.13146C12.5985 2.19378 11.3268 1.66699 10.0007 1.66699C8.67461 1.66699 7.40284 2.19378 6.46516 3.13146C5.52748 4.06914 5.0007 5.34091 5.0007 6.66699C5.0007 9.24215 4.35109 11.0053 3.62542 12.1715C3.0133 13.1552 2.70724 13.6471 2.71847 13.7843C2.73089 13.9362 2.76308 13.9942 2.88551 14.085C2.99608 14.167 3.49452 14.167 4.49141 14.167H15.51C16.5069 14.167 17.0053 14.167 17.1159 14.085C17.2383 13.9942 17.2705 13.9362 17.2829 13.7843C17.2941 13.6471 16.9881 13.1552 16.376 12.1715C15.6503 11.0053 15.0007 9.24215 15.0007 6.66699Z" stroke="#CFD3D7" stroke-width="2" stroke-linecap="round" stroke-linejoin="round"/>
</g>
<defs>
<clipPath id="clip0_1139_9996">
<rect width="20" height="20" fill="white"/>
</clipPath>
</defs>
</svg>
