<svg width="19" height="19" viewBox="0 0 19 19" fill="none" xmlns="http://www.w3.org/2000/svg">
<path fill-rule="evenodd" clip-rule="evenodd" d="M18.14 9.34774C18.14 8.70956 18.0827 8.09593 17.9764 7.50684H9.5V10.9882H14.3436C14.135 12.1132 13.5009 13.0664 12.5477 13.7046V15.9627H15.4564C17.1582 14.3959 18.14 12.0887 18.14 9.34774Z" fill="#4285F4"/>
<path fill-rule="evenodd" clip-rule="evenodd" d="M9.49976 18.143C11.9298 18.143 13.967 17.3371 15.4561 15.9626L12.5475 13.7044C11.7416 14.2444 10.7107 14.5635 9.49976 14.5635C7.15567 14.5635 5.17158 12.9803 4.46385 10.853H1.45703V13.1848C2.93794 16.1262 5.98158 18.143 9.49976 18.143Z" fill="#34A853"/>
<path fill-rule="evenodd" clip-rule="evenodd" d="M4.46409 10.8529C4.28409 10.3129 4.18182 9.73607 4.18182 9.14289C4.18182 8.54971 4.28409 7.97289 4.46409 7.43289V5.10107H1.45727C0.847727 6.31607 0.5 7.69062 0.5 9.14289C0.5 10.5952 0.847727 11.9697 1.45727 13.1847L4.46409 10.8529Z" fill="#FBBC05"/>
<path fill-rule="evenodd" clip-rule="evenodd" d="M9.49976 3.72261C10.8211 3.72261 12.0075 4.1767 12.9402 5.06852L15.5216 2.48716C13.9629 1.03488 11.9257 0.143066 9.49976 0.143066C5.98158 0.143066 2.93794 2.15988 1.45703 5.10125L4.46385 7.43307C5.17158 5.30579 7.15567 3.72261 9.49976 3.72261Z" fill="#EA4335"/>
</svg>
