<svg width="25" height="24" viewBox="0 0 25 24" fill="none" xmlns="http://www.w3.org/2000/svg">
<path d="M5.66675 3L2.66675 6M22.6667 6L19.6667 3M6.66675 19L4.66675 21M18.6667 19L20.6667 21M12.6667 9V13L14.6667 15M12.6667 21C14.7885 21 16.8233 20.1571 18.3236 18.6569C19.8239 17.1566 20.6667 15.1217 20.6667 13C20.6667 10.8783 19.8239 8.84344 18.3236 7.34315C16.8233 5.84285 14.7885 5 12.6667 5C10.545 5 8.51018 5.84285 7.00989 7.34315C5.5096 8.84344 4.66675 10.8783 4.66675 13C4.66675 15.1217 5.5096 17.1566 7.00989 18.6569C8.51018 20.1571 10.545 21 12.6667 21Z" stroke="currentColor" stroke-width="2" stroke-linecap="round" stroke-linejoin="round"/>
</svg>
