<svg width="186" height="168" viewBox="0 0 186 168" fill="none" xmlns="http://www.w3.org/2000/svg">
<g filter="url(#filter0_ii_1275_7509)">
<path d="M93 16C119.51 16 141 24.0589 141 34C141 41.1591 129.855 47.3403 113.716 50.2402C117.686 52.4614 120 55.1295 120 58C120 64.015 109.839 69.1427 95.5762 71.124C97.7565 72.5668 99 74.2291 99 76C99 81.5229 86.9117 86 72 86C57.0883 86 45 81.5229 45 76C45 72.6848 49.3561 69.7481 56.0635 67.9287C49.2304 65.3929 45 61.8811 45 58C45 53.4902 50.712 49.4794 59.582 46.9189C50.5892 43.6475 45 39.0695 45 34C45 24.0589 66.4903 16 93 16Z" fill="#4D4DFF"/>
</g>
<ellipse cx="71.3149" cy="46.5318" rx="3.5" ry="5" transform="rotate(10 71.3149 46.5318)" fill="#1C1F21"/>
<ellipse cx="71.3752" cy="45.6449" rx="1" ry="1.5" transform="rotate(5 71.3752 45.6449)" fill="#E8ECF0"/>
<ellipse cx="88.3149" cy="46.5318" rx="3.5" ry="5" transform="rotate(10 88.3149 46.5318)" fill="#1C1F21"/>
<ellipse cx="88.3752" cy="45.6449" rx="1" ry="1.5" transform="rotate(5 88.3752 45.6449)" fill="#E8ECF0"/>
<path d="M13.9 153.4C13.0667 153.4 12.2167 153.217 11.35 152.85C10.5167 152.45 10.1 151.817 10.1 150.95V127.55C10.1 126.483 10.3667 125.75 10.9 125.35C11.4333 124.95 11.8667 124.7 12.2 124.6H2.55C1.75 124.6 1.15 124.25 0.75 123.55C0.383333 122.817 0.2 122.067 0.2 121.3C0.2 120.467 0.4 119.717 0.8 119.05C1.2 118.35 1.78333 118 2.55 118H24.9C25.6667 118 26.25 118.35 26.65 119.05C27.05 119.717 27.25 120.467 27.25 121.3C27.25 122.067 27.05 122.817 26.65 123.55C26.2833 124.25 25.7 124.6 24.9 124.6H17.3V150.95C17.3 151.783 16.95 152.4 16.25 152.8C15.5833 153.2 14.8 153.4 13.9 153.4ZM34.1555 153.4C31.6888 153.4 30.4555 152.283 30.4555 150.05V120.8C30.4555 119.633 30.7388 118.783 31.3055 118.25C31.8721 117.717 32.7721 117.45 34.0055 117.45C36.4388 117.45 37.6555 118.567 37.6555 120.8V150.05C37.6555 151.183 37.3721 152.033 36.8055 152.6C36.2721 153.133 35.3888 153.4 34.1555 153.4ZM51.7121 150.05C51.7121 152.283 50.5454 153.4 48.2121 153.4C47.0788 153.4 46.1788 153.117 45.5121 152.55C44.8454 151.983 44.5121 151.15 44.5121 150.05V129.4C44.5121 125.467 45.3454 122.5 47.0121 120.5C48.7121 118.467 51.2121 117.45 54.5121 117.45C56.9454 117.45 58.9621 117.95 60.5621 118.95C62.1621 119.95 63.2288 121.383 63.7621 123.25C64.2954 121.383 65.3621 119.95 66.9621 118.95C68.5621 117.95 70.6121 117.45 73.1121 117.45C76.5121 117.45 79.0288 118.433 80.6621 120.4C82.2954 122.333 83.1121 125.333 83.1121 129.4V149.55C83.1121 150.917 82.8454 151.9 82.3121 152.5C81.7788 153.1 80.8788 153.4 79.6121 153.4C78.3454 153.4 77.4121 153.1 76.8121 152.5C76.2121 151.867 75.9121 150.883 75.9121 149.55V129C75.9121 125.7 74.4954 124.05 71.6621 124.05C70.2288 124.05 69.1621 124.533 68.4621 125.5C67.7621 126.433 67.4121 127.933 67.4121 130V149.05C67.4121 150.417 67.1454 151.4 66.6121 152C66.0788 152.6 65.1788 152.9 63.9121 152.9C62.6454 152.9 61.7121 152.6 61.1121 152C60.5121 151.367 60.2121 150.383 60.2121 149.05V130C60.2121 126.033 58.7954 124.05 55.9621 124.05C53.1288 124.05 51.7121 125.7 51.7121 129V150.05ZM92.1781 153C91.5448 153 91.0115 152.75 90.5781 152.25C90.1448 151.75 89.9281 151.117 89.9281 150.35V126.95C89.9281 123.817 90.8948 121.55 92.8281 120.15C94.7615 118.717 97.8781 118 102.178 118H108.428C109.528 118 110.378 118.3 110.978 118.9C111.611 119.467 111.928 120.283 111.928 121.35C111.928 122.383 111.611 123.183 110.978 123.75C110.378 124.317 109.528 124.6 108.428 124.6H101.828C100.161 124.6 98.9615 124.933 98.2281 125.6C97.4948 126.267 97.1281 127.35 97.1281 128.85C97.1281 129.383 97.0948 130.05 97.0281 130.85C96.9615 131.617 96.8615 132.5 96.7281 133.5C97.2948 133.033 98.0115 132.667 98.8781 132.4C99.7448 132.1 100.595 131.95 101.428 131.95H106.378C107.311 131.95 108.028 132.233 108.528 132.8C109.061 133.367 109.328 134.15 109.328 135.15C109.328 136.15 109.061 136.95 108.528 137.55C107.995 138.15 107.278 138.45 106.378 138.45H101.028C99.4948 138.45 98.4615 138.767 97.9281 139.4C97.3948 140 97.1281 141.233 97.1281 143.1V146.4H108.428C109.661 146.4 110.545 146.667 111.078 147.2C111.645 147.733 111.928 148.6 111.928 149.8C111.928 150.933 111.661 151.75 111.128 152.25C110.595 152.75 109.695 153 108.428 153H92.1781ZM140.164 153.4C136.131 153.4 133.047 152.4 130.914 150.4C128.814 148.367 127.764 145.317 127.764 141.25V121.35C127.764 118.75 128.964 117.45 131.364 117.45C133.764 117.45 134.964 118.75 134.964 121.35V141.25C134.964 143.35 135.414 144.883 136.314 145.85C137.247 146.817 138.531 147.3 140.164 147.3C144.164 147.3 146.164 145.283 146.164 141.25V121.35C146.164 118.75 147.364 117.45 149.764 117.45C152.164 117.45 153.364 118.75 153.364 121.35V141.25C153.364 145.283 152.247 148.317 150.014 150.35C147.781 152.383 144.497 153.4 140.164 153.4ZM166.946 150.05C166.946 152.283 165.78 153.4 163.446 153.4C162.313 153.4 161.413 153.117 160.746 152.55C160.08 151.983 159.746 151.15 159.746 150.05V128.7C159.746 124.967 160.73 122.167 162.696 120.3C164.663 118.4 167.963 117.45 172.596 117.45C176.03 117.45 178.713 118.367 180.646 120.2C182.613 122.033 183.596 124.983 183.596 129.05C183.596 132.583 182.663 135.283 180.796 137.15C178.963 139.017 176.363 139.95 172.996 139.95C171.096 139.95 169.713 140.1 168.846 140.4C168.013 140.667 167.48 141.183 167.246 141.95C167.046 142.683 166.946 143.767 166.946 145.2V150.05ZM166.496 135.6C166.896 135.267 167.28 134.983 167.646 134.75C168.013 134.483 168.496 134.283 169.096 134.15C169.73 133.983 170.563 133.9 171.596 133.9C173.03 133.9 174.163 133.783 174.996 133.55C175.83 133.283 176.413 132.8 176.746 132.1C177.113 131.4 177.296 130.383 177.296 129.05C177.296 127.283 177.08 126 176.646 125.2C176.246 124.367 175.663 123.833 174.896 123.6C174.163 123.333 173.263 123.2 172.196 123.2C170.263 123.2 168.896 123.55 168.096 124.25C167.33 124.95 166.946 126.167 166.946 127.9C166.946 129.133 166.913 130.483 166.846 131.95C166.78 133.417 166.663 134.633 166.496 135.6Z" fill="#4D4DFF"/>
<defs>
<filter id="filter0_ii_1275_7509" x="37" y="12" width="107" height="76" filterUnits="userSpaceOnUse" color-interpolation-filters="sRGB">
<feFlood flood-opacity="0" result="BackgroundImageFix"/>
<feBlend mode="normal" in="SourceGraphic" in2="BackgroundImageFix" result="shape"/>
<feColorMatrix in="SourceAlpha" type="matrix" values="0 0 0 0 0 0 0 0 0 0 0 0 0 0 0 0 0 0 127 0" result="hardAlpha"/>
<feOffset dx="-10" dy="-4"/>
<feGaussianBlur stdDeviation="4"/>
<feComposite in2="hardAlpha" operator="arithmetic" k2="-1" k3="1"/>
<feColorMatrix type="matrix" values="0 0 0 0 0.152941 0 0 0 0 0.152941 0 0 0 0 0.243137 0 0 0 0.25 0"/>
<feBlend mode="normal" in2="shape" result="effect1_innerShadow_1275_7509"/>
<feColorMatrix in="SourceAlpha" type="matrix" values="0 0 0 0 0 0 0 0 0 0 0 0 0 0 0 0 0 0 127 0" result="hardAlpha"/>
<feOffset dx="3" dy="2"/>
<feGaussianBlur stdDeviation="3"/>
<feComposite in2="hardAlpha" operator="arithmetic" k2="-1" k3="1"/>
<feColorMatrix type="matrix" values="0 0 0 0 0.698039 0 0 0 0 0.698039 0 0 0 0 1 0 0 0 0.3 0"/>
<feBlend mode="normal" in2="effect1_innerShadow_1275_7509" result="effect2_innerShadow_1275_7509"/>
</filter>
</defs>
</svg>
