<svg width="64" height="64" viewBox="0 0 64 64" fill="none" xmlns="http://www.w3.org/2000/svg">
<rect width="64" height="64" rx="32" fill="#B6BABE"/>
<path d="M34 14.5C47.2549 14.5 58 18.5294 58 23.5C58 27.15 52.2053 30.289 43.8779 31.7012C45.2316 32.6843 46 33.8068 46 35C45.9998 38.3151 40.0735 41.0895 32.1162 41.8135C33.3077 42.5901 34 43.5109 34 44.501C33.9994 47.2622 28.627 49.501 22 49.501C15.373 49.501 10.0006 47.2622 10 44.501C10 42.6639 12.3779 41.0586 15.9209 40.1895C12.2845 38.9087 10.0001 37.0582 10 35C10 32.8447 12.5051 30.9179 16.4443 29.6338C12.4469 28.0262 10 25.8715 10 23.5C10 18.5295 20.7452 14.5 34 14.5Z" fill="#F7F7FE"/>
<ellipse cx="25.1575" cy="30.6087" rx="1.75" ry="2.5" transform="rotate(9.99999 25.1575 30.6087)" fill="#1C1F21"/>
<ellipse cx="25.1876" cy="30.1667" rx="0.5" ry="0.749999" transform="rotate(5 25.1876 30.1667)" fill="#E8ECF0"/>
<ellipse cx="33.6575" cy="30.6087" rx="1.75" ry="2.5" transform="rotate(9.99999 33.6575 30.6087)" fill="#1C1F21"/>
<ellipse cx="33.6876" cy="30.1667" rx="0.5" ry="0.749999" transform="rotate(5 33.6876 30.1667)" fill="#E8ECF0"/>
</svg>
