<svg width="60" height="60" viewBox="0 0 60 60" fill="none" xmlns="http://www.w3.org/2000/svg">
<rect width="59.9997" height="60.0002" rx="29.9999" fill="#979B9F"/>
<ellipse cx="5.31005" cy="14.4669" rx="5.31005" ry="14.4669" transform="matrix(0.964288 -0.264856 0.252901 0.967492 10 8.81445)" fill="#F7F7FE"/>
<ellipse cx="2.65503" cy="8.13766" rx="2.65503" ry="8.13766" transform="matrix(0.964288 -0.264856 0.252901 0.967492 15.3008 17.3691)" fill="#B2B2FF"/>
<path d="M45.1035 22.8098C43.0829 30.54 39.1524 36.1768 36.3245 35.4001C33.4965 34.6233 32.8421 27.7271 34.8627 19.997C36.8833 12.2668 40.4808 12.3399 43.1317 14.1512C45.7822 15.5097 45.7822 20.9436 45.1035 22.8098Z" fill="#F7F7FE"/>
<path d="M41.6766 25.8468C40.6678 29.7059 38.7056 32.52 37.2938 32.1322C35.882 31.7445 35.5553 28.3017 36.564 24.4426C37.5728 20.5835 39.3688 20.6199 40.6922 21.5242C42.0154 22.2024 42.0154 24.9152 41.6766 25.8468Z" fill="#B2B2FF"/>
<path d="M39.1952 22.7003C43.6336 28.1225 48.7468 31.2149 50.6157 29.6073C52.4847 27.9998 50.4017 22.301 45.9632 16.8789C41.5248 11.4567 39.0289 13.0624 37.4586 15.1418C35.943 17.1486 34.7568 17.2782 39.1952 22.7003Z" fill="#F7F7FE"/>
<path d="M43.5741 39.826C43.5741 43.4208 42.3229 46.703 40.2609 49.2016C37.8326 52.1442 34.2797 54.0002 30.3215 54.0002C26.3633 54.0002 22.8104 52.1442 20.382 49.2016C18.32 46.703 17.0688 43.4208 17.0688 39.826C17.0688 31.9979 23.0023 27.7363 30.3215 27.7363C37.6407 27.7363 43.5741 31.9979 43.5741 39.826Z" fill="#F7F7FE"/>
<ellipse cx="25.0209" cy="39.5099" rx="1.76702" ry="2.71695" fill="#33373B"/>
<ellipse cx="25.6095" cy="38.6049" rx="0.589006" ry="0.90565" fill="#F7F7FE"/>
<ellipse cx="35.6225" cy="39.5099" rx="1.76702" ry="2.71695" fill="#33373B"/>
<ellipse cx="36.2096" cy="38.6049" rx="0.589006" ry="0.90565" fill="#F7F7FE"/>
<path d="M26.3447 46.3018C27.0515 47.6603 28.2001 47.6603 28.5535 47.6603C29.6137 47.6603 30.3205 46.4439 30.3205 44.9434" stroke="#33373B" stroke-linecap="round"/>
<path d="M34.2979 46.3018C33.591 47.6603 32.4425 47.6603 32.0891 47.6603C31.0289 47.6603 30.3221 46.4439 30.3221 44.9434" stroke="#33373B" stroke-linecap="round"/>
<path d="M29.6573 45.2603C30.036 45.5965 30.6063 45.5965 30.985 45.2603L31.4128 44.8805C32.1007 44.2698 31.6688 43.1327 30.7489 43.1327H29.8933C28.9735 43.1327 28.5416 44.2698 29.2295 44.8805L29.6573 45.2603Z" fill="#F3B2C9"/>
</svg>
