<svg width="200" height="200" viewBox="0 0 200 200" fill="none" xmlns="http://www.w3.org/2000/svg">
<path d="M99.9995 30C153.019 30 196 46.1177 196 66C196 80.5978 172.831 93.1656 139.53 98.8154C144.934 102.745 148 107.232 148 112C148 125.256 124.311 136.359 92.4985 139.26C97.2477 142.362 99.9995 146.047 99.9995 150C99.9995 161.046 78.5092 170 51.9995 170C25.4898 170 3.99951 161.046 3.99951 150C3.99951 142.653 13.5068 136.233 27.6743 132.756C13.1333 127.633 3.99951 120.231 3.99951 112C3.99951 103.381 14.0131 95.6734 29.7622 90.5371C13.7796 84.1071 3.99951 75.4835 3.99951 66C3.99951 46.1178 46.9801 30.0001 99.9995 30Z" fill="#F7F7FE"/>
<ellipse cx="65.6293" cy="94.4386" rx="7" ry="10" transform="rotate(10 65.6293 94.4386)" fill="#1C1F21"/>
<ellipse cx="65.75" cy="92.6648" rx="2" ry="3" transform="rotate(5 65.75 92.6648)" fill="#E8ECF0"/>
<ellipse cx="99.6293" cy="94.4386" rx="7" ry="10" transform="rotate(10 99.6293 94.4386)" fill="#1C1F21"/>
<ellipse cx="99.75" cy="92.6648" rx="2" ry="3" transform="rotate(5 99.75 92.6648)" fill="#E8ECF0"/>
<path d="M102.999 103C102.999 103 110.379 114.231 107.208 118.75C105.103 121.75 100.895 121.75 98.7907 118.75C95.621 114.231 102.999 103 102.999 103Z" fill="#61B8F6"/>
</svg>
