<svg width="18" height="20" viewBox="0 0 18 20" fill="none" xmlns="http://www.w3.org/2000/svg">
<path d="M6.79447 17.4998C7.38208 18.0185 8.15395 18.3332 8.99932 18.3332C9.8447 18.3332 10.6166 18.0185 11.2042 17.4998M13.9993 6.6665C13.9993 5.34042 13.4725 4.06865 12.5349 3.13097C11.5972 2.19329 10.3254 1.6665 8.99932 1.6665C7.67324 1.6665 6.40147 2.19329 5.46379 3.13097C4.52611 4.06865 3.99932 5.34042 3.99932 6.6665C3.99932 9.24166 3.34972 11.0048 2.62404 12.171C2.01193 13.1547 1.70587 13.6466 1.71709 13.7838C1.72952 13.9357 1.76171 13.9937 1.88414 14.0845C1.99471 14.1665 2.49315 14.1665 3.49004 14.1665H14.5086C15.5055 14.1665 16.0039 14.1665 16.1145 14.0845C16.2369 13.9937 16.2691 13.9357 16.2816 13.7838C16.2928 13.6466 15.9867 13.1547 15.3746 12.171C14.6489 11.0048 13.9993 9.24166 13.9993 6.6665Z" stroke="#CFD3D7" stroke-width="2" stroke-linecap="round" stroke-linejoin="round"/>
</svg>
