<svg width="16" height="20" viewBox="0 0 16 20" fill="none" xmlns="http://www.w3.org/2000/svg">
<path d="M9.66732 1.89105V5.33317C9.66732 5.79988 9.66732 6.03324 9.75815 6.2115C9.83804 6.3683 9.96552 6.49578 10.1223 6.57568C10.3006 6.6665 10.5339 6.6665 11.0007 6.6665H14.4428M14.6673 8.32336V14.3332C14.6673 15.7333 14.6673 16.4334 14.3948 16.9681C14.1552 17.4386 13.7727 17.821 13.3023 18.0607C12.7675 18.3332 12.0674 18.3332 10.6673 18.3332H5.33398C3.93385 18.3332 3.23379 18.3332 2.69901 18.0607C2.2286 17.821 1.84615 17.4386 1.60647 16.9681C1.33398 16.4334 1.33398 15.7333 1.33398 14.3332V5.6665C1.33398 4.26637 1.33398 3.56631 1.60647 3.03153C1.84615 2.56112 2.2286 2.17867 2.69901 1.93899C3.23379 1.6665 3.93385 1.6665 5.33398 1.6665H8.01046C8.62194 1.6665 8.92768 1.6665 9.2154 1.73558C9.47049 1.79682 9.71435 1.89783 9.93803 2.0349C10.1903 2.18951 10.4065 2.4057 10.8389 2.83808L13.4957 5.49493C13.9281 5.92731 14.1443 6.1435 14.2989 6.39579C14.436 6.61947 14.537 6.86333 14.5982 7.11842C14.6673 7.40614 14.6673 7.71188 14.6673 8.32336Z" stroke="#CFD3D7" stroke-width="2" stroke-linecap="round" stroke-linejoin="round"/>
</svg>
